<svg width="16" height="16" viewBox="0 0 16 16" fill="none" xmlns="http://www.w3.org/2000/svg">
<path d="M7.78906 15.5781C7.45312 15.5781 7.1875 15.3359 7.125 14.9688C6.375 9.77344 5.69531 9.14062 0.632812 8.46094C0.265625 8.41406 0 8.14062 0 7.78906C0 7.4375 0.265625 7.15625 0.632812 7.11719C5.70312 6.55469 6.42969 5.8125 7.125 0.609375C7.17969 0.242188 7.45312 0 7.78906 0C8.13281 0 8.39844 0.242188 8.46094 0.609375C9.17188 5.8125 9.89062 6.53125 14.9531 7.11719C15.3203 7.15625 15.5859 7.4375 15.5859 7.78906C15.5859 8.14062 15.3125 8.42188 14.9531 8.46094C9.88281 9.02344 9.14844 9.75781 8.46094 14.9688C8.40625 15.3281 8.13281 15.5781 7.78906 15.5781Z" fill="black"/>
</svg>
