<svg width="14" height="14" viewBox="0 0 14 14" fill="none" xmlns="http://www.w3.org/2000/svg">
<path d="M5.28125 13.5547C4.89062 13.5547 4.60156 13.3906 4.32812 13.0547L0.28125 7.99219C0.0859375 7.75 0 7.52344 0 7.28906C0 6.75 0.398438 6.35938 0.945312 6.35938C1.28906 6.35938 1.52344 6.48438 1.75 6.78906L5.25 11.2812L12.0391 0.5C12.2734 0.132812 12.5 0 12.8828 0C13.4297 0 13.8047 0.375 13.8047 0.914062C13.8047 1.125 13.7422 1.34375 13.5781 1.59375L6.23438 13.0469C6.00781 13.3828 5.69531 13.5547 5.28125 13.5547Z" fill="#27C840"/>
</svg>
