<svg width="12" height="14" viewBox="0 0 12 14" fill="none" xmlns="http://www.w3.org/2000/svg">
<path d="M7.94531 6.91406C7.94531 7.17969 7.85156 7.40625 7.64062 7.60938L1.54688 13.5703C1.375 13.7422 1.16406 13.8281 0.914062 13.8281C0.40625 13.8281 0 13.4375 0 12.9219C0 12.6719 0.109375 12.4453 0.273438 12.2734L5.77344 6.91406L0.273438 1.55469C0.101562 1.375 0 1.14844 0 0.898438C0 0.390625 0.40625 0 0.914062 0C1.16406 0 1.375 0.0859375 1.54688 0.257812L7.64062 6.21875C7.84375 6.42188 7.94531 6.64844 7.94531 6.91406Z" fill="black"/>
</svg>
