<svg width="9" height="15" viewBox="0 0 9 15" fill="none" xmlns="http://www.w3.org/2000/svg">
<path d="M1.28906 10.4688C0.75 10.4688 0.414062 10.1328 0.398438 9.57031L0.296875 1.0625C0.296875 1.02344 0.289062 0.992188 0.289062 0.960938C0.289062 0.367188 0.71875 0 1.28125 0C1.84375 0 2.26562 0.367188 2.26562 0.960938C2.26562 0.992188 2.26562 1.02344 2.26562 1.0625L2.17188 9.57031C2.15625 10.1328 1.82031 10.4688 1.28906 10.4688ZM7.25781 10.4688C6.71875 10.4688 6.38281 10.1328 6.375 9.57031L6.26562 1.0625C6.26562 1.02344 6.26562 0.992188 6.26562 0.960938C6.26562 0.367188 6.6875 0 7.25 0C7.82031 0 8.24219 0.367188 8.24219 0.960938C8.24219 0.992188 8.23438 1.02344 8.23438 1.0625L8.14062 9.57031C8.13281 10.1328 7.79688 10.4688 7.25781 10.4688ZM1.28125 14.8828C0.578125 14.8828 0 14.3203 0 13.625C0 12.9219 0.578125 12.3672 1.28125 12.3672C1.99219 12.3672 2.5625 12.9219 2.5625 13.625C2.5625 14.3203 1.99219 14.8828 1.28125 14.8828ZM7.25 14.8828C6.54688 14.8828 5.96875 14.3203 5.96875 13.625C5.96875 12.9219 6.54688 12.3672 7.25 12.3672C7.96094 12.3672 8.53125 12.9219 8.53125 13.625C8.53125 14.3203 7.96094 14.8828 7.25 14.8828Z" fill="#FF5F57"/>
</svg>
