<svg width="65" height="57" viewBox="0 0 65 57" fill="none" xmlns="http://www.w3.org/2000/svg">
<path d="M64.5918 7.88281L54.1836 23.6494C57.3128 24.7274 59.8977 26.681 61.9385 29.5107C63.9793 32.2058 65 35.5072 65 39.415C65 44.266 63.2998 48.4438 59.8984 51.9473C56.4971 55.316 52.3471 57 47.4492 57C45.0003 57 42.6875 56.5281 40.5107 55.585C38.3339 54.6417 36.4285 53.4295 34.7959 51.9473C33.9655 51.05 33.2195 50.069 32.5566 49.0059C31.8924 50.0336 31.1092 51.015 30.2041 51.9473C26.8028 55.3159 22.6527 57 17.7549 57C15.306 57 12.9932 56.5282 10.8164 55.585C8.63976 54.6418 6.73508 53.4293 5.10254 51.9473C3.60594 50.3302 2.38109 48.4431 1.42871 46.2871C0.476373 44.1311 1.79767e-05 41.8405 0 39.415C0 37.6633 0.204142 36.1131 0.612305 34.7656C1.02044 33.2835 1.56493 31.8689 2.24512 30.5215C3.06144 29.0392 4.0141 27.5565 5.10254 26.0742L22.8574 0L34.8984 7.88281L24.4902 23.6494C27.6193 24.7275 30.2044 26.6811 32.2451 29.5107C32.2968 29.579 32.3451 29.6497 32.3955 29.7188C33.1047 28.5042 33.904 27.2888 34.7959 26.0742L52.5508 0L64.5918 7.88281Z" fill="#0049FF"/>
</svg>
