<svg width="40" height="40" viewBox="0 0 40 40" fill="none" xmlns="http://www.w3.org/2000/svg">
<path d="M13.5625 27.5781C11.875 27.5781 11 26.7109 11 25.0469V15.5312C11 13.8594 11.875 13 13.5625 13H26.9453C28.6328 13 29.5078 13.8672 29.5078 15.5312V25.0469C29.5078 26.7109 28.6328 27.5781 26.9453 27.5781H13.5625ZM13.6562 26.0469H26.8516C27.5703 26.0469 27.9766 25.6719 27.9766 24.9141V15.6641C27.9766 14.9062 27.5703 14.5234 26.8516 14.5234H13.6562C12.9297 14.5234 12.5312 14.9062 12.5312 15.6641V24.9141C12.5312 25.6719 12.9297 26.0469 13.6562 26.0469ZM15.9219 19.9297C15.5859 19.9297 15.3516 19.6641 15.3516 19.3125V16.3359C15.3516 15.8672 15.6172 15.6484 16.0391 15.6484H19.0469C19.3906 15.6484 19.6406 15.8828 19.6406 16.2266C19.6406 16.5625 19.3906 16.8047 19.0312 16.8047H18.0859L17.1719 16.7109L18.1641 17.5938L19.6797 19.1094C19.7969 19.2344 19.875 19.3984 19.875 19.5547C19.875 19.9141 19.625 20.1562 19.2812 20.1562C19.0938 20.1562 18.9375 20.0859 18.8125 19.9609L17.3047 18.4531L16.4141 17.4766L16.5 18.4453V19.3281C16.5 19.6797 16.2656 19.9297 15.9219 19.9297ZM24.5781 20.6484C24.9219 20.6484 25.1562 20.9141 25.1562 21.2656V24.2422C25.1562 24.7109 24.8828 24.9297 24.4609 24.9297H21.4609C21.1172 24.9297 20.8672 24.6875 20.8672 24.3516C20.8672 24.0156 21.1172 23.7734 21.4766 23.7734H22.4141L23.3359 23.8672L22.3438 22.9844L20.8281 21.4609C20.7109 21.3438 20.6328 21.1797 20.6328 21.0234C20.6328 20.6641 20.8828 20.4219 21.2266 20.4219C21.4141 20.4219 21.5703 20.4844 21.6953 20.6172L23.2031 22.125L24.0938 23.1016L24 22.1328V21.25C24 20.8984 24.2422 20.6484 24.5781 20.6484Z" fill="black"/>
</svg>
