<svg width="40" height="40" viewBox="0 0 40 40" fill="none" xmlns="http://www.w3.org/2000/svg">
<path d="M17.7543 18.4064C14.8381 18.4064 12.4387 15.8102 12.4387 12.6479C12.4387 9.52246 14.8381 7 17.7543 7C20.7074 7 23.0699 9.48555 23.0699 12.6232C23.0699 15.7979 20.6828 18.4064 17.7543 18.4064ZM17.7543 16.5484C19.5754 16.5484 21.0889 14.8012 21.0889 12.6232C21.0889 10.4822 19.6 8.85801 17.7543 8.85801C15.9332 8.85801 14.4197 10.5068 14.4197 12.6479C14.4197 14.8258 15.9578 16.5484 17.7543 16.5484ZM10.027 29.7883C7.97207 29.7883 7 29.173 7 27.8195C7 24.608 11.0729 19.9322 17.7543 19.9322C19.7354 19.9322 21.4703 20.3629 22.9346 21.0273C22.2209 21.3473 21.7041 21.8395 21.3842 22.4301C20.3506 22.0363 19.1201 21.7902 17.7543 21.7902C12.1064 21.7902 8.98105 25.5678 8.98105 27.5857C8.98105 27.8441 9.11641 27.9303 9.43633 27.9303H20.6951V28.5455C20.6951 29.0008 20.732 29.4191 20.8182 29.7883H10.027ZM22.3809 28.5824V24.1527C22.3809 23.4514 22.6516 22.9715 23.3775 22.6639C24.0912 22.3686 26.3676 21.5811 26.9705 21.3596C27.4258 21.175 27.8811 21.175 28.2871 21.3104C28.9885 21.5564 31.2648 22.3686 31.9908 22.6639C32.7168 22.9715 32.9875 23.4514 32.9875 24.1527V28.5824C32.9875 30.9449 31.5971 31.7939 28.2502 33.7627C27.8687 33.9842 27.4012 33.9473 27.1059 33.7627C23.759 31.8062 22.3809 30.9449 22.3809 28.5824ZM26.9459 30.9449C27.2166 30.9449 27.4627 30.8219 27.5857 30.6496L31.1664 25.6908C31.2771 25.5309 31.3387 25.3586 31.3387 25.2232C31.3387 24.7926 30.9695 24.4604 30.5635 24.4604C30.2805 24.4604 30.059 24.5957 29.9113 24.8049L26.909 28.9639L25.3955 27.3273C25.2725 27.192 25.0756 27.0689 24.8049 27.0689C24.3865 27.0689 24.042 27.4012 24.042 27.8441C24.042 28.0164 24.1035 28.2379 24.2512 28.3979L26.3307 30.6742C26.4906 30.8588 26.7367 30.9449 26.9459 30.9449Z" fill="#27C840"/>
</svg>
