<svg width="40" height="40" viewBox="0 0 40 40" fill="none" xmlns="http://www.w3.org/2000/svg">
<path d="M17.6797 32.4844C10.8137 32.4844 5.12891 26.7873 5.12891 19.9336C5.12891 13.0676 10.8014 7.38281 17.6674 7.38281C24.0658 7.38281 29.4553 12.3416 30.1443 18.5924C29.7137 18.4939 29.2707 18.457 28.8154 18.4447C28.557 18.4447 28.274 18.457 28.0279 18.4816C27.3266 13.3752 22.983 9.47461 17.6674 9.47461C11.8596 9.47461 7.23301 14.1258 7.23301 19.9336C7.23301 25.7414 11.8719 30.3926 17.6797 30.3926C19.0209 30.3926 20.276 30.1342 21.4449 29.6789C21.7279 30.3311 22.0971 30.934 22.5523 31.4631C21.0512 32.1275 19.4023 32.4844 17.6797 32.4844ZM28.6186 32.6197C25.1979 32.6197 22.3678 29.8143 22.3678 26.3689C22.3678 22.9482 25.1979 20.1182 28.6186 20.1182C32.0516 20.1182 34.8693 22.9359 34.8693 26.3689C34.8693 29.7896 32.0146 32.6197 28.6186 32.6197ZM28.6186 27.4271C29.0492 27.4271 29.3568 27.1318 29.3691 26.7135L29.4676 23.1943C29.4799 22.6898 29.1353 22.3453 28.6186 22.3453C28.1018 22.3453 27.7695 22.6898 27.7818 23.1943L27.8803 26.7135C27.8926 27.1318 28.1879 27.4271 28.6186 27.4271ZM28.6186 30.3557C29.1969 30.3557 29.6521 29.9004 29.6645 29.3221C29.6645 28.7561 29.1969 28.2762 28.6186 28.2762C28.0525 28.2762 27.585 28.7561 27.585 29.3221C27.585 29.9004 28.0525 30.3557 28.6186 30.3557Z" fill="#16a34a"/>
</svg>
