<svg width="40" height="40" viewBox="0 0 40 40" fill="none" xmlns="http://www.w3.org/2000/svg">
<path d="M15.6256 16.2195C13.3492 16.2195 11.5158 14.3861 11.5158 12.1098C11.5158 9.8334 13.3492 8 15.6256 8C17.902 8 19.7354 9.8334 19.7354 12.1098C19.7354 14.3861 17.902 16.2195 15.6256 16.2195ZM24.6695 16.2195C22.3932 16.2195 20.5598 14.3861 20.5598 12.1098C20.5598 9.8334 22.3932 8 24.6695 8C26.9459 8 28.7793 9.8334 28.7793 12.1098C28.7793 14.3861 26.9459 16.2195 24.6695 16.2195ZM15.6256 14.2385C16.7945 14.2385 17.7543 13.291 17.7543 12.1098C17.7543 10.9408 16.7945 9.98105 15.6256 9.98105C14.4566 9.98105 13.4969 10.9408 13.4969 12.1098C13.4969 13.291 14.4566 14.2385 15.6256 14.2385ZM24.6695 14.2385C25.8508 14.2385 26.7982 13.291 26.7982 12.1098C26.7982 10.9408 25.8508 9.98105 24.6695 9.98105C23.5006 9.98105 22.5408 10.9408 22.5408 12.1098C22.5408 13.291 23.5006 14.2385 24.6695 14.2385ZM11.1098 24.3037C8.8457 24.3037 7 22.4703 7 20.1939C7 17.9176 8.8457 16.0842 11.1098 16.0842C13.3861 16.0842 15.2318 17.9176 15.2318 20.1939C15.2318 22.4703 13.3861 24.3037 11.1098 24.3037ZM29.1854 24.3037C26.909 24.3037 25.0633 22.4703 25.0633 20.1939C25.0633 17.9176 26.909 16.0842 29.1854 16.0842C31.4617 16.0842 33.2951 17.9176 33.2951 20.1939C33.2951 22.4703 31.4617 24.3037 29.1854 24.3037ZM11.1098 22.3227C12.291 22.3227 13.2508 21.3629 13.2508 20.1939C13.2508 19.0127 12.291 18.0652 11.1098 18.0652C9.94082 18.0652 8.98105 19.0127 8.98105 20.1939C8.98105 21.3629 9.94082 22.3227 11.1098 22.3227ZM29.1854 22.3227C30.3543 22.3227 31.3141 21.3629 31.3141 20.1939C31.3141 19.0127 30.3543 18.0652 29.1854 18.0652C28.0041 18.0652 27.0443 19.0127 27.0443 20.1939C27.0443 21.3629 28.0041 22.3227 29.1854 22.3227ZM15.6256 32.4002C13.3492 32.4002 11.5158 30.5545 11.5158 28.2904C11.5158 26.0141 13.3492 24.1684 15.6256 24.1684C17.902 24.1684 19.7354 26.0141 19.7354 28.2904C19.7354 30.5545 17.902 32.4002 15.6256 32.4002ZM24.6695 32.4002C22.3932 32.4002 20.5598 30.5545 20.5598 28.2904C20.5598 26.0141 22.3932 24.1684 24.6695 24.1684C26.9459 24.1684 28.7793 26.0141 28.7793 28.2904C28.7793 30.5545 26.9459 32.4002 24.6695 32.4002ZM15.6256 30.4191C16.7945 30.4191 17.7543 29.4594 17.7543 28.2904C17.7543 27.1092 16.7945 26.1494 15.6256 26.1494C14.4566 26.1494 13.4969 27.1092 13.4969 28.2904C13.4969 29.4594 14.4566 30.4191 15.6256 30.4191ZM24.6695 30.4191C25.8508 30.4191 26.7982 29.4594 26.7982 28.2904C26.7982 27.1092 25.8508 26.1494 24.6695 26.1494C23.5006 26.1494 22.5408 27.1092 22.5408 28.2904C22.5408 29.4594 23.5006 30.4191 24.6695 30.4191Z" fill="#27C840"/>
</svg>
