<svg width="40" height="40" viewBox="0 0 40 40" fill="none" xmlns="http://www.w3.org/2000/svg">
<path d="M19.6928 11.9924C19.5328 11.9924 19.4467 11.8939 19.4221 11.7463C19.0529 9.75293 19.0898 9.65449 16.9488 9.27305C16.7889 9.23613 16.7027 9.15 16.7027 8.99004C16.7027 8.84238 16.7889 8.74395 16.9488 8.71934C19.0898 8.33789 19.0529 8.23945 19.4221 6.24609C19.4467 6.09844 19.5328 6 19.6928 6C19.8527 6 19.9389 6.09844 19.9635 6.24609C20.3326 8.23945 20.2957 8.33789 22.4367 8.71934C22.5844 8.74395 22.6828 8.84238 22.6828 8.99004C22.6828 9.15 22.5844 9.23613 22.4367 9.27305C20.2957 9.65449 20.3326 9.75293 19.9635 11.7463C19.9389 11.8939 19.8527 11.9924 19.6928 11.9924ZM13.7373 20.458C13.5158 20.458 13.3559 20.298 13.3189 20.052C12.9252 16.7666 12.7652 16.6805 9.41836 16.1391C9.15996 16.1021 9 15.9668 9 15.7207C9 15.4992 9.15996 15.3516 9.36914 15.3146C12.7406 14.6748 12.9252 14.6871 13.3189 11.4018C13.3559 11.1557 13.5158 10.9957 13.7373 10.9957C13.9711 10.9957 14.1311 11.1557 14.1557 11.3895C14.5863 14.724 14.7094 14.8348 18.1055 15.3146C18.3146 15.3393 18.4746 15.4992 18.4746 15.7207C18.4746 15.9545 18.3146 16.1021 18.1055 16.1391C14.7094 16.7912 14.5986 16.7912 14.1557 20.0766C14.1311 20.298 13.9711 20.458 13.7373 20.458ZM22.0799 34.067C21.76 34.067 21.5262 33.8332 21.477 33.501C20.5541 26.7703 19.6312 25.8721 12.9867 24.9984C12.6299 24.9615 12.3961 24.7154 12.3961 24.3832C12.3961 24.0633 12.6299 23.8172 12.9867 23.7803C19.6436 23.042 20.6033 22.0084 21.477 15.2654C21.5262 14.9332 21.76 14.7117 22.0799 14.7117C22.3998 14.7117 22.6336 14.9332 22.6951 15.2654C23.5687 22.0084 24.5162 23.042 31.1854 23.7803C31.5299 23.8172 31.7637 24.0633 31.7637 24.3832C31.7637 24.7154 31.5299 24.9615 31.1854 24.9984C24.5162 25.7367 23.5687 26.7703 22.6951 33.501C22.6336 33.8332 22.3998 34.067 22.0799 34.067Z" fill="#27C840"/>
</svg>
