<svg width="40" height="40" viewBox="0 0 40 40" fill="none" xmlns="http://www.w3.org/2000/svg">
<path d="M12.1451 15.0793V14.501C10.4471 14.058 9.17969 12.5076 9.17969 10.6496C9.17969 8.47168 10.9516 6.6875 13.1418 6.6875C15.332 6.6875 17.1039 8.47168 17.1039 10.6496C17.1039 12.5076 15.8488 14.058 14.1262 14.501V15.0793C14.1262 16.5559 15.1844 17.6264 17.2023 18.1924L23.3916 19.9396C26.3201 20.7518 27.8459 22.4744 27.8459 24.923V25.5137C29.5562 25.9566 30.8236 27.507 30.8236 29.365C30.8236 31.543 29.0518 33.3148 26.8615 33.3148C24.6713 33.3148 22.8871 31.543 22.8871 29.365C22.8871 27.507 24.1545 25.9566 25.8648 25.5137V24.923C25.8648 23.4465 24.8312 22.4006 22.801 21.8223L16.6117 20.075C13.6832 19.2629 12.1451 17.5402 12.1451 15.0793ZM13.1418 12.6922C14.2984 12.6922 15.1721 11.7939 15.1721 10.6496C15.1721 9.50527 14.2861 8.61934 13.1418 8.61934C12.0098 8.61934 11.1115 9.50527 11.1115 10.6496C11.1115 11.7939 12.0098 12.6922 13.1418 12.6922Z" fill="#FF5F57"/>
</svg>
