<svg width="40" height="40" viewBox="0 0 40 40" fill="none" xmlns="http://www.w3.org/2000/svg">
<path d="M20.0065 9.52169C19.421 9.52169 18.9351 9.03583 18.9351 8.4503C18.9351 7.86477 19.421 7.37891 20.0065 7.37891C20.592 7.37891 21.0779 7.86477 21.0779 8.4503C21.0779 9.03583 20.592 9.52169 20.0065 9.52169ZM23.5695 10.1072C22.984 10.1072 22.4981 9.62135 22.4981 9.03583C22.4981 8.4503 22.984 7.96443 23.5695 7.96443C24.155 7.96443 24.6409 8.4503 24.6409 9.03583C24.6409 9.62135 24.155 10.1072 23.5695 10.1072ZM16.4435 10.1072C15.8455 10.1072 15.3721 9.62135 15.3721 9.03583C15.3721 8.4503 15.8455 7.96443 16.4435 7.96443C17.029 7.96443 17.5149 8.4503 17.5149 9.03583C17.5149 9.62135 17.029 10.1072 16.4435 10.1072ZM26.8086 11.7392C26.2231 11.7392 25.7372 11.2534 25.7372 10.6678C25.7372 10.0823 26.2231 9.59644 26.8086 9.59644C27.3941 9.59644 27.88 10.0823 27.88 10.6678C27.88 11.2534 27.3941 11.7392 26.8086 11.7392ZM13.2044 11.7392C12.6064 11.7392 12.133 11.2534 12.133 10.6678C12.133 10.0823 12.6064 9.59644 13.2044 9.59644C13.7899 9.59644 14.2758 10.0823 14.2758 10.6678C14.2758 11.2534 13.7899 11.7392 13.2044 11.7392ZM29.3625 14.3056C28.777 14.3056 28.2911 13.8197 28.2911 13.2342C28.2911 12.6487 28.777 12.1628 29.3625 12.1628C29.948 12.1628 30.4339 12.6487 30.4339 13.2342C30.4339 13.8197 29.948 14.3056 29.3625 14.3056ZM10.6381 14.3056C10.0525 14.3056 9.56667 13.8197 9.56667 13.2342C9.56667 12.6487 10.0525 12.1628 10.6381 12.1628C11.2236 12.1628 11.7095 12.6487 11.7095 13.2342C11.7095 13.8197 11.2236 14.3056 10.6381 14.3056ZM20.019 26.2778C19.7573 26.2778 19.5456 26.203 19.2964 25.9539L15.1852 21.9922C14.9984 21.8053 14.8863 21.606 14.8863 21.3319C14.8863 20.8211 15.2725 20.4599 15.7832 20.4599C16.0324 20.4599 16.294 20.5595 16.4684 20.7588L18.3745 22.7771L19.0971 23.5495L19.0223 21.6807V14.6793C19.0223 14.1561 19.4833 13.7201 20.019 13.7201C20.5547 13.7201 21.0032 14.1561 21.0032 14.6793V21.6807L20.9284 23.5495L21.651 22.7771L23.5571 20.7588C23.7315 20.5595 23.9806 20.4599 24.2298 20.4599C24.7406 20.4599 25.1392 20.8211 25.1392 21.3319C25.1392 21.606 25.0271 21.8053 24.8402 21.9922L20.7415 25.9539C20.4799 26.203 20.2681 26.2778 20.019 26.2778ZM30.9945 17.4948C30.409 17.4948 29.9231 17.009 29.9231 16.4234C29.9231 15.8379 30.409 15.3521 30.9945 15.3521C31.58 15.3521 32.0659 15.8379 32.0659 16.4234C32.0659 17.009 31.58 17.4948 30.9945 17.4948ZM9.00606 17.4948C8.42053 17.4948 7.93466 17.009 7.93466 16.4234C7.93466 15.8379 8.42053 15.3521 9.00606 15.3521C9.59158 15.3521 10.0774 15.8379 10.0774 16.4234C10.0774 17.009 9.59158 17.4948 9.00606 17.4948ZM31.6049 21.0703C31.0194 21.0703 30.5336 20.5844 30.5336 19.9989C30.5336 19.4134 31.0194 18.9275 31.6049 18.9275C32.1905 18.9275 32.6763 19.4134 32.6763 19.9989C32.6763 20.5844 32.1905 21.0703 31.6049 21.0703ZM8.39561 21.0703C7.81008 21.0703 7.32422 20.5844 7.32422 19.9989C7.32422 19.4134 7.81008 18.9275 8.39561 18.9275C8.98114 18.9275 9.467 19.4134 9.467 19.9989C9.467 20.5844 8.98114 21.0703 8.39561 21.0703ZM30.9945 24.6458C30.409 24.6458 29.9231 24.1599 29.9231 23.5744C29.9231 22.9888 30.409 22.503 30.9945 22.503C31.58 22.503 32.0659 22.9888 32.0659 23.5744C32.0659 24.1599 31.58 24.6458 30.9945 24.6458ZM9.00606 24.6458C8.42053 24.6458 7.93466 24.1599 7.93466 23.5744C7.93466 22.9888 8.42053 22.503 9.00606 22.503C9.59158 22.503 10.0774 22.9888 10.0774 23.5744C10.0774 24.1599 9.59158 24.6458 9.00606 24.6458ZM29.3625 27.8475C28.777 27.8475 28.2911 27.3616 28.2911 26.7761C28.2911 26.1906 28.777 25.7047 29.3625 25.7047C29.948 25.7047 30.4339 26.1906 30.4339 26.7761C30.4339 27.3616 29.948 27.8475 29.3625 27.8475ZM10.6381 27.8475C10.0525 27.8475 9.56667 27.3616 9.56667 26.7761C9.56667 26.1906 10.0525 25.7047 10.6381 25.7047C11.2236 25.7047 11.7095 26.1906 11.7095 26.7761C11.7095 27.3616 11.2236 27.8475 10.6381 27.8475ZM26.8086 30.4014C26.2231 30.4014 25.7372 29.9155 25.7372 29.33C25.7372 28.7445 26.2231 28.2586 26.8086 28.2586C27.3941 28.2586 27.88 28.7445 27.88 29.33C27.88 29.9155 27.3941 30.4014 26.8086 30.4014ZM13.2044 30.4014C12.6064 30.4014 12.133 29.9155 12.133 29.33C12.133 28.7445 12.6064 28.2586 13.2044 28.2586C13.7899 28.2586 14.2758 28.7445 14.2758 29.33C14.2758 29.9155 13.7899 30.4014 13.2044 30.4014ZM23.5695 32.0334C22.984 32.0334 22.4981 31.5475 22.4981 30.962C22.4981 30.3765 22.984 29.8906 23.5695 29.8906C24.155 29.8906 24.6409 30.3765 24.6409 30.962C24.6409 31.5475 24.155 32.0334 23.5695 32.0334ZM16.4435 32.0334C15.8455 32.0334 15.3721 31.5475 15.3721 30.962C15.3721 30.3765 15.8455 29.8906 16.4435 29.8906C17.029 29.8906 17.5149 30.3765 17.5149 30.962C17.5149 31.5475 17.029 32.0334 16.4435 32.0334ZM20.0065 32.6189C19.421 32.6189 18.9351 32.133 18.9351 31.5475C18.9351 30.962 19.421 30.4761 20.0065 30.4761C20.592 30.4761 21.0779 30.962 21.0779 31.5475C21.0779 32.133 20.592 32.6189 20.0065 32.6189Z" fill="#16a34a"/>
</svg>
