<svg width="40" height="40" viewBox="0 0 40 40" fill="none" xmlns="http://www.w3.org/2000/svg">
<path d="M17.7621 17.9494C14.8459 17.9494 12.4465 15.3531 12.4465 12.1908C12.4465 9.06543 14.8459 6.54297 17.7621 6.54297C20.7152 6.54297 23.0777 9.02852 23.0777 12.1662C23.0777 15.3408 20.6906 17.9494 17.7621 17.9494ZM17.7621 16.0914C19.5832 16.0914 21.0967 14.3441 21.0967 12.1662C21.0967 10.0252 19.6078 8.40098 17.7621 8.40098C15.941 8.40098 14.4275 10.0498 14.4275 12.1908C14.4275 14.3687 15.9656 16.0914 17.7621 16.0914ZM10.0348 29.3312C7.97988 29.3312 7.00781 28.716 7.00781 27.3625C7.00781 24.151 11.0807 19.4752 17.7621 19.4752C19.7432 19.4752 21.4781 19.9059 22.9424 20.5703C22.2287 20.8902 21.7119 21.3824 21.392 21.973C20.3584 21.5793 19.1279 21.3332 17.7621 21.3332C12.1143 21.3332 8.98887 25.1107 8.98887 27.1287C8.98887 27.3871 9.12422 27.4732 9.44414 27.4732H20.7029V28.0885C20.7029 28.5437 20.7398 28.9621 20.826 29.3312H10.0348ZM22.3887 28.1254V23.6957C22.3887 22.9943 22.6594 22.5145 23.3854 22.2068C24.099 21.9115 26.3754 21.124 26.9783 20.9025C27.4336 20.718 27.8889 20.718 28.2949 20.8533C28.9963 21.0994 31.2727 21.9115 31.9986 22.2068C32.7246 22.5145 32.9953 22.9943 32.9953 23.6957V28.1254C32.9953 30.4879 31.6049 31.3369 28.258 33.3057C27.8766 33.5271 27.409 33.4902 27.1137 33.3057C23.7668 31.3492 22.3887 30.4879 22.3887 28.1254ZM27.692 28.1746C28.1227 28.1746 28.4303 27.8793 28.4426 27.4609L28.541 23.9418C28.5533 23.4373 28.2088 23.0928 27.692 23.0928C27.1875 23.0928 26.843 23.4373 26.8553 23.9418L26.9537 27.4609C26.966 27.8793 27.2613 28.1746 27.692 28.1746ZM27.692 31.1031C28.2703 31.1031 28.7379 30.6479 28.7379 30.0695C28.7379 29.5035 28.2703 29.0236 27.692 29.0236C27.126 29.0236 26.6584 29.5035 26.6584 30.0695C26.6584 30.6479 27.126 31.1031 27.692 31.1031Z" fill="#FF5F57"/>
</svg>
