<svg width="40" height="40" viewBox="0 0 40 40" fill="none" xmlns="http://www.w3.org/2000/svg">
<path d="M20.41 9.07601C19.8311 9.07601 19.372 8.61689 19.372 8.038C19.372 7.45912 19.8311 7 20.41 7C20.9789 7 21.438 7.45912 21.438 8.038C21.438 8.61689 20.9789 9.07601 20.41 9.07601ZM13.3935 11.4215C12.8246 11.4215 12.3555 10.9624 12.3555 10.3835C12.3555 9.81459 12.8246 9.35547 13.3935 9.35547C13.9724 9.35547 14.4315 9.81459 14.4315 10.3835C14.4315 10.9624 13.9724 11.4215 13.3935 11.4215ZM27.4165 11.4215C26.8376 11.4215 26.3785 10.9624 26.3785 10.3835C26.3785 9.81459 26.8376 9.35547 27.4165 9.35547C27.9954 9.35547 28.4545 9.81459 28.4545 10.3835C28.4545 10.9624 27.9954 11.4215 27.4165 11.4215ZM20.41 11.0821C23.9332 11.0821 26.7178 13.6472 26.7178 16.9109C26.7178 20.524 24.542 21.4223 23.9432 27.6603C23.9132 28.0096 23.7236 28.2292 23.3543 28.2292H17.4656C17.0864 28.2292 16.9067 28.0096 16.8668 27.6603C16.2679 21.4223 14.1021 20.524 14.1021 16.9109C14.1021 13.6472 16.8768 11.0821 20.41 11.0821ZM20.41 12.5493C17.785 12.5493 15.5693 14.3758 15.5693 16.9109C15.5693 19.5858 17.3359 20.2046 18.2042 26.762H22.6157C23.4741 20.2046 25.2507 19.5858 25.2507 16.9109C25.2507 14.3758 23.025 12.5493 20.41 12.5493ZM11.038 18.428C10.4591 18.428 10 17.9689 10 17.39C10 16.8211 10.4591 16.362 11.038 16.362C11.6169 16.362 12.076 16.8211 12.076 17.39C12.076 17.9689 11.6169 18.428 11.038 18.428ZM29.782 18.428C29.2031 18.428 28.744 17.9689 28.744 17.39C28.744 16.8211 29.2031 16.362 29.782 16.362C30.3509 16.362 30.81 16.8211 30.81 17.39C30.81 17.9689 30.3509 18.428 29.782 18.428ZM17.4357 30.2653C17.1063 30.2653 16.8668 30.0257 16.8668 29.6964C16.8668 29.367 17.1063 29.1274 17.4357 29.1274H23.3843C23.7136 29.1274 23.9631 29.367 23.9631 29.6964C23.9631 30.0257 23.7136 30.2653 23.3843 30.2653H17.4357ZM20.41 33C18.9328 33 17.6852 32.2614 17.6253 31.1635H23.1946C23.1248 32.2614 21.8772 33 20.41 33Z" fill="#5856D6"/>
</svg>
