<svg width="40" height="40" viewBox="0 0 40 40" fill="none" xmlns="http://www.w3.org/2000/svg">
<path d="M8 30.9701V9.04291C8 8.41716 8.41716 8 9.04291 8H30.9701C31.5959 8 32 8.41716 32 9.04291V30.9701C32 31.5959 31.5959 32 30.9701 32H9.04291C8.41716 32 8 31.5959 8 30.9701ZM10.0989 29.5231C10.0989 29.8099 10.2032 29.9011 10.4769 29.9011H29.5231C29.8099 29.9011 29.9011 29.8099 29.9011 29.5231V10.4769C29.9011 10.2032 29.8099 10.0989 29.5231 10.0989H10.4769C10.2032 10.0989 10.0989 10.2032 10.0989 10.4769V29.5231ZM20.0065 13.6187C19.3938 13.6187 18.8854 13.1103 18.8854 12.4976C18.8854 11.8848 19.3938 11.3764 20.0065 11.3764C20.6192 11.3764 21.1276 11.8848 21.1276 12.4976C21.1276 13.1103 20.6192 13.6187 20.0065 13.6187ZM20.0065 17.3732C19.3938 17.3732 18.8854 16.8647 18.8854 16.252C18.8854 15.6393 19.3938 15.1309 20.0065 15.1309C20.6192 15.1309 21.1276 15.6393 21.1276 16.252C21.1276 16.8647 20.6192 17.3732 20.0065 17.3732ZM20.0065 21.1276C19.3938 21.1276 18.8854 20.6192 18.8854 20.0065C18.8854 19.3938 19.3938 18.8854 20.0065 18.8854C20.6192 18.8854 21.1276 19.3938 21.1276 20.0065C21.1276 20.6192 20.6192 21.1276 20.0065 21.1276ZM12.4976 21.1276C11.8848 21.1276 11.3764 20.6192 11.3764 20.0065C11.3764 19.3938 11.8848 18.8854 12.4976 18.8854C13.1103 18.8854 13.6187 19.3938 13.6187 20.0065C13.6187 20.6192 13.1103 21.1276 12.4976 21.1276ZM16.252 21.1276C15.6393 21.1276 15.1309 20.6192 15.1309 20.0065C15.1309 19.3938 15.6393 18.8854 16.252 18.8854C16.8647 18.8854 17.3732 19.3938 17.3732 20.0065C17.3732 20.6192 16.8647 21.1276 16.252 21.1276ZM23.748 21.1276C23.1353 21.1276 22.6268 20.6192 22.6268 20.0065C22.6268 19.3938 23.1353 18.8854 23.748 18.8854C24.3607 18.8854 24.8691 19.3938 24.8691 20.0065C24.8691 20.6192 24.3607 21.1276 23.748 21.1276ZM27.5024 21.1276C26.8897 21.1276 26.3813 20.6192 26.3813 20.0065C26.3813 19.3938 26.8897 18.8854 27.5024 18.8854C28.1152 18.8854 28.6236 19.3938 28.6236 20.0065C28.6236 20.6192 28.1152 21.1276 27.5024 21.1276ZM20.0065 24.8821C19.3938 24.8821 18.8854 24.3737 18.8854 23.761C18.8854 23.1483 19.3938 22.6399 20.0065 22.6399C20.6192 22.6399 21.1276 23.1483 21.1276 23.761C21.1276 24.3737 20.6192 24.8821 20.0065 24.8821ZM20.0065 28.6236C19.3938 28.6236 18.8854 28.1152 18.8854 27.5024C18.8854 26.8897 19.3938 26.3813 20.0065 26.3813C20.6192 26.3813 21.1276 26.8897 21.1276 27.5024C21.1276 28.1152 20.6192 28.6236 20.0065 28.6236Z" fill="#FF5F57"/>
</svg>
