<svg width="40" height="40" viewBox="0 0 40 40" fill="none" xmlns="http://www.w3.org/2000/svg">
<path d="M19.9944 16.6839C17.4638 16.6839 15.3972 14.6067 15.3972 12.0867C15.3972 9.56664 17.4638 7.5 19.9944 7.5C22.5144 7.5 24.5916 9.56664 24.5916 12.0867C24.5916 14.6067 22.5144 16.6839 19.9944 16.6839ZM12.3394 24.5919C9.79828 24.5919 7.74219 22.5148 7.74219 19.9947C7.74219 17.4852 9.79828 15.4081 12.3394 15.4081C14.8594 15.4081 16.9366 17.4852 16.9366 19.9947C16.9366 22.5148 14.8594 24.5919 12.3394 24.5919ZM27.6705 24.5919C25.1294 24.5919 23.0627 22.5148 23.0627 19.9947C23.0627 17.4852 25.1294 15.4081 27.6705 15.4081C30.18 15.4081 32.2572 17.4852 32.2572 19.9947C32.2572 22.5148 30.18 24.5919 27.6705 24.5919ZM12.3394 22.9365C13.9843 22.9365 15.2812 21.6501 15.2812 19.9947C15.2812 18.3499 13.9843 17.0213 12.3394 17.0213C10.684 17.0213 9.38706 18.3499 9.38706 19.9947C9.38706 21.6501 10.684 22.9365 12.3394 22.9365ZM27.6705 22.9365C29.3154 22.9365 30.6017 21.6501 30.6017 19.9947C30.6017 18.3499 29.3154 17.0213 27.6705 17.0213C26.0045 17.0213 24.7181 18.3499 24.7181 19.9947C24.7181 21.6501 26.0045 22.9365 27.6705 22.9365ZM19.9944 32.5C17.4638 32.5 15.3972 30.4228 15.3972 27.9028C15.3972 25.3933 17.4638 23.3161 19.9944 23.3161C22.5144 23.3161 24.5916 25.3933 24.5916 27.9028C24.5916 30.4228 22.5144 32.5 19.9944 32.5ZM19.9944 30.8446C21.6498 30.8446 22.9362 29.5582 22.9362 27.9028C22.9362 26.2685 21.6498 24.9294 19.9944 24.9294C18.339 24.9294 17.0421 26.2685 17.0421 27.9028C17.0421 29.5582 18.339 30.8446 19.9944 30.8446Z" fill="#FF5F57"/>
</svg>
