<svg width="40" height="40" viewBox="0 0 40 40" fill="none" xmlns="http://www.w3.org/2000/svg">
<path d="M9.15162 28.1487C8.38787 28.1487 7.88281 27.4219 7.88281 26.3625V14.5737C7.88281 13.1694 8.01832 12.9476 9.22553 12.2455L19.5608 6.30796C19.9303 6.08623 20.2752 6 20.5955 6C21.2854 6 21.8151 6.50506 21.7658 7.31808L10.3465 13.8962C9.96464 14.1056 9.87841 14.278 9.87841 14.7215V27.9023C9.63204 28.0748 9.37335 28.1487 9.15162 28.1487ZM14.0667 30.9943C13.3276 30.9943 12.7856 30.2675 12.7856 29.2081V17.407C12.7856 16.0273 12.9334 15.7686 14.1406 15.0788L24.4759 9.1289C24.8454 8.93181 25.1903 8.83326 25.4983 8.83326C26.2251 8.83326 26.7302 9.35064 26.6932 10.1513L15.2739 16.7418C14.8674 16.9635 14.7935 17.0867 14.7935 17.5671V30.7479C14.5471 30.9204 14.3008 30.9943 14.0667 30.9943ZM19.3514 34C18.4151 34 17.9224 33.2116 17.9224 31.7827V20.6221C17.9224 19.2794 18.3289 18.5895 19.4869 17.912L29.1692 12.3317C29.7482 11.9991 30.2532 11.839 30.6721 11.839C31.596 11.839 32.1133 12.5904 32.1133 14.0686V25.2292C32.1133 26.6089 31.7068 27.2864 30.5735 27.9393L20.9158 33.4826C20.2999 33.8275 19.7825 34 19.3514 34ZM20.0166 31.5979C20.0535 31.6102 20.0905 31.6102 20.1397 31.5856L29.5141 26.1531C29.9206 25.9067 30.0562 25.5988 30.0562 25.1923L30.0931 14.352C30.0931 14.2657 30.0685 14.2288 30.0069 14.2165C29.9699 14.2041 29.933 14.2041 29.8837 14.2288L20.5586 19.7105C20.1521 19.9446 20.0166 20.1909 20.0166 20.659L19.9303 31.4624C19.9303 31.5486 19.9426 31.5856 20.0166 31.5979Z" fill="#5856D6"/>
</svg>
