<svg width="40" height="40" viewBox="0 0 40 40" fill="none" xmlns="http://www.w3.org/2000/svg">
<path d="M21.9434 35.1191C17.4492 35.1191 14.6562 33.5322 14.5039 30.8281L13.1963 30.9551C11.127 31.1836 9.50195 30.041 9.50195 27.7559V25.3184C8.14355 24.9629 7.34375 23.8838 7.34375 22.5762C7.34375 21.8906 7.54688 21.1416 7.99121 20.3799L9.54004 17.5869C9.50195 17.2568 9.48926 16.9268 9.48926 16.5332C9.48926 9.53809 14.123 4.87891 21.042 4.87891C27.9863 4.87891 32.6582 9.65234 32.6582 16.7998C32.6582 19.8594 31.5029 22.6523 29.5098 24.3916V30.5869C29.5098 33.4561 26.6279 35.1191 21.9434 35.1191ZM21.9434 33.0752C25.3838 33.0752 27.4658 31.9834 27.4658 30.2314L27.4531 23.3887C29.4209 22.1318 30.6143 19.6436 30.6143 16.7998C30.6143 10.8584 26.7803 6.92285 21.042 6.92285C15.3291 6.92285 11.5332 10.7568 11.5332 16.4951C11.5332 17.0029 11.5713 17.498 11.6475 17.9932L9.75586 21.3955C9.52734 21.8018 9.41309 22.208 9.41309 22.5508C9.41309 23.1982 9.89551 23.6172 10.7207 23.6172H11.3047C11.4697 23.6172 11.5459 23.6934 11.5459 23.8076V27.6035C11.5459 28.6191 12.041 29.0127 12.9297 28.9238L16.1924 28.5557C16.3447 28.543 16.4336 28.6064 16.4336 28.7842V30.2314C16.4336 31.9834 18.5156 33.0752 21.9434 33.0752ZM13.3994 14.5908C13.3994 13.3594 14.0215 12.1914 14.999 11.4932C15.0244 10.0586 16.167 9.00488 17.6904 9.00488C18.1348 9.00488 18.5791 9.09375 18.9854 9.27148C19.5312 8.7002 20.3057 8.37012 21.207 8.37012C22.0322 8.37012 22.7939 8.72559 23.3145 9.30957C23.4541 9.28418 23.5938 9.27148 23.7334 9.27148C25.1426 9.27148 26.2979 10.2236 26.6406 11.582C28.1768 11.9121 29.1924 13.1055 29.1924 14.6416C29.1924 15.4033 28.9766 16.0635 28.583 16.584C28.6211 16.9775 28.6465 17.4219 28.6465 18.0059C28.6465 20.1641 27.6943 21.7002 26.3232 21.7002C25.3838 21.7002 24.6221 20.9131 24.4316 19.7324H24.1016C23.3145 19.7324 22.6543 19.4785 22.21 19.0469C21.7783 19.1484 21.334 19.1992 20.915 19.1992C19.7979 19.1992 18.7822 18.8311 18.084 18.2217C17.8174 18.2598 17.5254 18.2852 17.2207 18.2852C14.9355 18.2852 13.3994 16.7998 13.3994 14.5908ZM18.1348 11.3535C18.1475 10.9854 18.2109 10.6299 18.3252 10.3125C18.1221 10.249 17.9062 10.2109 17.6904 10.2109C16.8271 10.2109 16.2051 10.7568 16.2051 11.5186C16.2051 12.2295 16.7129 12.6992 17.4746 12.6992C17.8047 12.6992 18.084 12.9658 18.084 13.2959C18.084 13.626 17.8047 13.9053 17.4746 13.9053C16.5098 13.9053 15.748 13.4863 15.3291 12.8008C14.8721 13.2705 14.6055 13.9053 14.6055 14.5781C14.6055 16.1016 15.6592 17.0791 17.2334 17.0791C18.7822 17.0791 19.7852 16.2412 19.7852 14.9463C19.7852 14.54 19.6582 14.21 19.417 13.9814C19.1885 13.7529 18.9727 13.626 18.9727 13.2705C18.9727 12.9658 19.2139 12.7246 19.5566 12.7246C19.7725 12.7246 19.9375 12.8135 20.166 13.0039C20.3564 13.1562 20.5088 13.334 20.623 13.5498C21.3467 13.3467 21.6641 12.8896 21.6641 12.0518C21.6641 11.7217 21.9307 11.4551 22.2607 11.4551C22.5908 11.4551 22.8701 11.7344 22.8701 12.0518C22.8701 13.4355 22.21 14.3369 20.9658 14.7051C20.9658 14.7939 20.9785 14.8828 20.9785 14.9717C20.9785 16.1523 20.4326 17.1172 19.5186 17.6885C19.9375 17.8789 20.458 17.9932 21.0039 17.9932C21.207 17.9932 21.4229 17.9805 21.626 17.9424C21.6006 17.8027 21.5879 17.6631 21.5879 17.5234C21.5879 14.6416 25.5107 15.1113 25.5107 12.4199C25.5107 11.3154 24.6855 10.4902 23.6191 10.4902C23.4414 10.4902 23.2891 10.4902 23.1621 10.5283C22.8828 10.6045 22.7051 10.6045 22.6162 10.4268C22.3877 9.90625 21.8291 9.57617 21.207 9.57617C20.1406 9.57617 19.3789 10.3379 19.3281 11.3916C19.3154 11.7471 19.0742 12.001 18.7188 12.001C18.3633 12.001 18.1221 11.7217 18.1348 11.3535ZM25.0918 17.1299C25.0918 16.7998 25.3711 16.5078 25.7012 16.5332C27.085 16.6348 27.9863 15.873 27.9863 14.6416C27.9863 13.7021 27.4912 13.042 26.7168 12.8135C26.4375 15.9746 22.7939 15.5176 22.7939 17.5107C22.7939 18.2598 23.416 18.6533 24.6221 18.6533C24.7744 18.6533 24.9902 18.6406 25.168 18.6406C25.3203 18.6406 25.4346 18.7168 25.4346 18.8818C25.4346 19.834 25.8027 20.4941 26.3232 20.4941C26.9326 20.4941 27.4404 19.3896 27.4404 17.9932C27.4404 17.8154 27.4404 17.6377 27.4277 17.4727C26.9199 17.6885 26.3359 17.7773 25.6758 17.7393C25.333 17.7012 25.0918 17.46 25.0918 17.1299Z" fill="#5856D6"/>
</svg>
